# This file uses centimeters as units for non-parametric coordinates.

mtllib Gallery.mtl
g default
v 1.465289 0.050032 -7.665701
v 5.688350 0.050032 -7.665701
v 1.465289 0.218786 -7.665701
v 5.688350 0.218786 -7.665701
v 1.465289 0.218786 -7.692863
v 5.688350 0.218786 -7.692863
v 1.465289 0.050032 -7.692863
v 5.688350 0.050032 -7.692863
v 5.659176 0.218786 -7.665701
v 5.659176 0.218786 -7.692863
v 5.659176 0.050032 -7.692863
v 5.659176 0.050032 -7.665701
v 5.659176 0.050032 6.664776
v 5.659176 0.218786 6.664776
v 5.688350 0.050032 6.664776
v 5.688350 0.218786 6.664776
v 5.659176 0.218786 6.644995
v 5.688350 0.218786 6.644995
v 5.688350 0.050032 6.644995
v 5.659176 0.050032 6.644995
v -5.682470 0.050032 6.644995
v -5.682470 0.218786 6.644995
v -5.682470 0.050032 6.664776
v -5.682470 0.218786 6.664776
v -5.667780 0.218786 6.644995
v -5.667780 0.218786 6.664776
v -5.667780 0.050032 6.664776
v -5.667780 0.050032 6.644995
v -5.667780 0.050032 -7.683912
v -5.667780 0.218786 -7.683912
v -5.682470 0.050032 -7.683912
v -5.682470 0.218786 -7.683912
v -5.667780 0.218786 -7.667203
v -5.682470 0.218786 -7.667203
v -5.682470 0.050032 -7.667203
v -5.667780 0.050032 -7.667203
v -1.513007 0.050032 -7.667203
v -1.513007 0.218786 -7.667203
v -1.513007 0.050032 -7.683912
v -1.513007 0.218786 -7.683912
vt 0.510863 0.661114
vt 0.586944 0.661114
vt 0.586944 0.661504
vt 0.510863 0.661504
vt 0.586944 0.661504
vt 0.510863 0.661504
vt 0.586944 0.661114
vt 0.510863 0.661114
vt 0.587473 0.661114
vt 0.587473 0.661504
vt 0.587473 0.661504
vt 0.587473 0.661114
vt 0.586944 0.455227
vt 0.586944 0.455227
vt 0.587473 0.455227
vt 0.587473 0.455227
vt 0.587473 0.455511
vt 0.586944 0.455511
vt 0.587473 0.455511
vt 0.586944 0.455511
vt 0.381196 0.455511
vt 0.381196 0.455511
vt 0.381196 0.455227
vt 0.381196 0.455227
vt 0.381463 0.455227
vt 0.381463 0.455511
vt 0.381463 0.455227
vt 0.381463 0.455511
vt 0.381463 0.661376
vt 0.381463 0.661376
vt 0.381196 0.661376
vt 0.381196 0.661376
vt 0.381196 0.661136
vt 0.381463 0.661136
vt 0.381196 0.661136
vt 0.381463 0.661136
vt 0.456834 0.661136
vt 0.456834 0.661136
vt 0.456834 0.661376
vt 0.456834 0.661376
vt 0.939315 0.980348
vt 0.956628 0.980384
vt 0.958591 0.022456
vt 0.941277 0.022420
vt 0.941277 0.022420
vt 0.958591 0.022456
vt 0.956628 0.980283
vt 0.872681 0.520648
vt 0.872241 0.735569
vt 0.857972 0.735540
vt 0.858412 0.520619
vt 0.857972 0.735540
vt 0.872241 0.735569
vt 0.873430 0.155105
vt 0.859161 0.155076
vt 0.859161 0.155076
vt 0.873430 0.155105
vt 0.872994 0.368021
vt 0.858725 0.367992
vt 0.939315 0.980248
vn 0.000000 0.000000 1.000000
vn 0.000000 0.000000 1.000000
vn 0.000000 0.000000 1.000000
vn 0.000000 0.000000 1.000000
vn 0.000000 1.000000 0.000000
vn 0.000000 1.000000 0.000000
vn 0.000000 1.000000 0.000000
vn 0.000000 1.000000 0.000000
vn 0.000000 0.000000 -1.000000
vn 0.000000 0.000000 -1.000000
vn 0.000000 0.000000 -1.000000
vn 0.000000 0.000000 -1.000000
vn 0.000000 -1.000000 0.000000
vn 0.000000 -1.000000 0.000000
vn 0.000000 -1.000000 0.000000
vn 0.000000 -1.000000 0.000000
vn 1.000000 0.000000 0.000000
vn 1.000000 0.000000 0.000000
vn 1.000000 0.000000 0.000000
vn 1.000000 0.000000 0.000000
vn -1.000000 0.000000 0.000000
vn -1.000000 0.000000 0.000000
vn -1.000000 0.000000 0.000000
vn -1.000000 0.000000 0.000000
vn 0.000000 1.000000 0.000000
vn 0.000000 1.000000 0.000000
vn 0.000000 0.000000 -1.000000
vn 0.000000 0.000000 -1.000000
vn 0.000000 -1.000000 0.000000
vn 0.000000 -1.000000 0.000000
vn 0.000000 0.000000 1.000000
vn 0.000000 0.000000 1.000000
vn 0.000000 0.000000 1.000000
vn 0.000000 0.000000 1.000000
vn -1.000000 0.000000 0.000000
vn -1.000000 0.000000 0.000000
vn -1.000000 0.000000 0.000000
vn -1.000000 0.000000 0.000000
vn 0.000000 -1.000000 0.000000
vn 0.000000 -1.000000 0.000000
vn 1.000000 0.000000 0.000000
vn 1.000000 0.000000 0.000000
vn 0.000000 1.000000 0.000000
vn 0.000000 1.000000 0.000000
vn 0.000000 1.000000 0.000000
vn 0.000000 1.000000 0.000000
vn 1.000000 0.000000 0.000000
vn 1.000000 0.000000 0.000000
vn 0.000000 -1.000000 0.000000
vn 0.000000 -1.000000 0.000000
vn -1.000000 0.000000 0.000000
vn -1.000000 0.000000 0.000000
vn -1.000000 0.000000 0.000000
vn -1.000000 0.000000 0.000000
vn 0.000000 0.000000 -1.000000
vn 0.000000 0.000000 -1.000000
vn 0.000000 0.000000 -1.000000
vn 0.000000 0.000000 -1.000000
vn 0.000000 -1.000000 0.000000
vn 0.000000 -1.000000 0.000000
vn 0.000000 0.000000 1.000000
vn 0.000000 0.000000 1.000000
vn 0.000000 1.000000 0.000000
vn 0.000000 1.000000 0.000000
vn 0.000000 1.000000 0.000000
vn 0.000000 1.000000 0.000000
vn 0.000000 0.000000 1.000000
vn 0.000000 0.000000 1.000000
vn 0.000000 -1.000000 0.000000
vn 0.000000 -1.000000 0.000000
vn 0.000000 0.000000 -1.000000
vn 0.000000 0.000000 -1.000000
vn 0.000000 0.000000 -1.000000
vn 0.000000 0.000000 -1.000000
vn 1.000000 0.000000 0.000000
vn 1.000000 0.000000 0.000000
vn 1.000000 0.000000 0.000000
vn 1.000000 0.000000 0.000000
vn 0.000000 -1.000000 0.000000
vn 0.000000 -1.000000 0.000000
vn -1.000000 0.000000 0.000000
vn -1.000000 0.000000 0.000000
vn 0.000000 1.000000 0.000000
vn 0.000000 1.000000 0.000000
vn 0.000000 1.000000 0.000000
vn 0.000000 1.000000 0.000000
vn -1.000000 0.000000 0.000000
vn -1.000000 0.000000 0.000000
vn 0.000000 -1.000000 0.000000
vn 0.000000 -1.000000 0.000000
vn 1.000000 0.000000 0.000000
vn 1.000000 0.000000 0.000000
vn 1.000000 0.000000 0.000000
vn 1.000000 0.000000 0.000000
vn 0.000000 0.000000 1.000000
vn 0.000000 0.000000 1.000000
vn 0.000000 0.000000 1.000000
vn 0.000000 0.000000 1.000000
vn 0.000000 -1.000000 0.000000
vn 0.000000 -1.000000 0.000000
vn 0.000000 0.000000 -1.000000
vn 0.000000 0.000000 -1.000000
vn 0.000000 1.000000 0.000000
vn 0.000000 1.000000 0.000000
s off
g pCube3 group4
usemtl initialShadingGroup
f 1/48/1 12/49/2 9/50/3 3/51/4
s 1
f 3/1/5 9/2/6 10/3/7 5/4/8
s 2
f 5/4/9 10/3/10 11/5/11 7/6/12
s 3
f 7/6/13 11/5/14 12/7/15 1/8/16
s 4
f 2/9/17 8/10/18 6/11/19 4/12/20
s off
f 7/6/21 1/8/22 3/1/23 5/4/24
s 1
f 9/2/6 4/12/25 6/11/26 10/3/7
s 2
f 11/5/11 10/3/10 6/11/27 8/10/28
s 3
f 12/7/15 11/5/14 8/10/29 2/9/30
s 5
f 14/13/31 13/14/32 15/15/33 16/16/34
s off
f 9/60/35 12/47/36 20/46/37 17/45/38
s 3
f 12/7/15 2/9/30 19/17/39 20/18/40
s 4
f 2/9/17 4/12/20 18/19/41 19/17/42
s 1
f 4/12/25 9/2/6 17/20/43 18/19/44
f 18/19/44 17/20/43 14/13/45 16/16/46
s 4
f 19/17/42 18/19/41 16/16/47 15/15/48
s 3
f 20/18/40 19/17/39 15/15/49 13/14/50
s 6
f 22/21/51 21/22/52 23/23/53 24/24/54
s off
f 17/52/55 20/53/56 28/54/57 25/55/58
s 3
f 20/18/40 13/14/50 27/25/59 28/26/60
s 5
f 13/14/32 14/13/31 26/27/61 27/25/62
s 1
f 14/13/45 17/20/43 25/28/63 26/27/64
f 26/27/64 25/28/63 22/21/65 24/24/66
s 5
f 27/25/62 26/27/61 24/24/67 23/23/68
s 3
f 28/26/60 27/25/59 23/23/69 21/22/70
s 7
f 30/29/71 29/30/72 31/31/73 32/32/74
s off
f 25/44/75 28/43/76 36/42/77 33/41/78
s 3
f 28/26/60 21/22/70 35/33/79 36/34/80
s 6
f 21/22/52 22/21/51 34/35/81 35/33/82
s 1
f 22/21/65 25/28/63 33/36/83 34/35/84
f 34/35/84 33/36/83 30/29/85 32/32/86
s 6
f 35/33/82 34/35/81 32/32/87 31/31/88
s 3
f 36/34/80 35/33/79 31/31/89 29/30/90
s off
f 38/37/91 37/38/92 39/39/93 40/40/94
f 33/56/95 36/57/96 37/58/97 38/59/98
s 3
f 36/34/80 29/30/90 39/39/99 37/38/100
s 7
f 29/30/72 30/29/71 40/40/101 39/39/102
s 1
f 30/29/85 33/36/83 38/37/103 40/40/104
g default
v -5.888743 -0.029948 6.890391
v 5.888743 -0.029948 6.890391
v -5.888743 0.054172 6.890391
v 5.888743 0.054172 6.890391
v -5.888743 0.054172 -7.911880
v 5.888743 0.054172 -7.911880
v -5.888743 -0.029948 -7.911880
v 5.888743 -0.029948 -7.911880
v 5.888743 0.054172 -7.678284
v -5.888743 0.054172 -7.678284
v -5.888743 -0.029948 -7.678284
v 5.888743 -0.029948 -7.678284
v 5.888743 0.054172 6.656802
v -5.888743 0.054172 6.656802
v -5.888743 -0.029948 6.656802
v 5.888743 -0.029948 6.656802
v 5.675862 0.054172 6.890391
v 5.675862 0.054172 6.656802
v 5.675862 0.054172 -7.678284
v 5.675862 0.054172 -7.911880
v 5.675862 -0.029948 -7.911880
v 5.675862 -0.029948 -7.678284
v 5.675862 -0.029948 6.656802
v 5.675862 -0.029948 6.890391
v -5.675862 0.054172 6.890391
v -5.675862 0.054172 6.656802
v -5.675862 0.054172 -7.678284
v -5.675862 0.054172 -7.911880
v -5.675862 -0.029948 -7.911880
v -5.675862 -0.029948 -7.678284
v -5.675862 -0.029948 6.656802
v -5.675862 -0.029948 6.890391
v -5.888743 5.507655 6.890391
v -5.675862 5.507655 6.890391
v -5.675862 5.507655 6.656802
v -5.888743 5.507655 6.656802
v -5.675862 5.507655 -7.678284
v -5.888743 5.507655 -7.678284
v -5.675862 5.507655 -7.911880
v -5.888743 5.507655 -7.911880
v 5.675862 5.507655 6.890391
v 5.888743 5.507655 6.890391
v 5.888743 5.507655 6.656802
v 5.675862 5.507655 6.656802
v 5.675862 5.507655 -7.678284
v 5.888743 5.507655 -7.678284
v 5.675862 5.507655 -7.911880
v 5.888743 5.507655 -7.911880
vt 0.021299 0.407054
vt 0.026040 0.407054
vt 0.026040 0.411618
vt 0.021299 0.411618
vt 0.026040 0.407054
vt 0.021299 0.407054
vt 0.349759 0.428016
vt 0.354583 0.428016
vt 0.354583 0.432228
vt 0.349759 0.432228
vt 0.021299 0.411618
vt 0.026040 0.411618
vt 0.321735 0.407054
vt 0.316994 0.407054
vt 0.316994 0.411618
vt 0.321735 0.411618
vt 0.316994 0.411618
vt 0.316994 0.407054
vt 0.321735 0.407054
vt 0.349759 0.432228
vt 0.354583 0.432228
vt 0.321735 0.411618
vt 0.021299 0.707490
vt 0.026040 0.707490
vt 0.316994 0.707490
vt 0.321735 0.707490
vt 0.026040 0.411618
vt 0.354583 0.428016
vt 0.349759 0.428016
vt 0.316994 0.411618
vt 0.016585 0.726385
vt 0.538015 0.388209
vt 0.026388 0.381924
vt 0.024448 0.726385
vt 0.349759 0.690680
vt 0.354583 0.690680
vt 0.354583 0.694891
vt 0.024448 0.730193
vt 0.349759 0.694891
vt 0.016585 0.730193
vt 0.029892 0.096638
vt 0.541520 0.102923
vt 0.016585 0.730193
vt 0.349759 0.694891
vt 0.354583 0.694891
vt 0.354583 0.690680
vt 0.024448 0.730193
vt 0.349759 0.690680
vt 0.611810 0.428016
vt 0.616634 0.428016
vt 0.616634 0.432228
vt 0.611810 0.432228
vt 0.611810 0.690680
vt 0.616634 0.690680
vt 0.611810 0.694891
vt 0.616634 0.694891
vt 0.611810 0.690680
vt 0.611810 0.694891
vt 0.616634 0.694891
vt 0.616634 0.690680
vt 0.611810 0.432228
vt 0.616634 0.432228
vt 0.611810 0.428016
vt 0.616634 0.428016
vt 0.024448 0.726385
vt 0.016585 0.726385
vt 0.443708 0.726385
vt 0.443708 0.730193
vt 0.451571 0.730193
vt 0.451571 0.726385
vt 0.443708 0.730193
vt 0.443708 0.726385
vt 0.451571 0.726385
vt 0.451571 0.730193
vt 0.024448 0.977041
vt 0.016585 0.977041
vt 0.016585 0.977041
vt 0.024448 0.977041
vt 0.451571 0.977041
vt 0.443708 0.977041
vt 0.443708 0.977041
vt 0.451571 0.977041
vt 0.443708 0.730193
vt 0.024448 0.730193
vt 0.024448 0.977041
vt 0.443708 0.977041
vt 0.024448 0.730193
vt 0.443708 0.730193
vt 0.443708 0.977041
vt 0.024448 0.977041
vt 0.316994 0.707490
vt 0.026040 0.707490
vt 0.026040 0.707490
vt 0.021299 0.707490
vt 0.316994 0.411618
vt 0.026040 0.411618
vt 0.026040 0.707490
vt 0.316994 0.707490
vt 0.316994 0.707490
vt 0.321735 0.707490
vt 0.026388 0.381924
vt 0.538015 0.388209
vt 0.541520 0.102923
vt 0.029892 0.096638
vn 0.000000 0.000000 1.000000
vn 0.000000 0.000000 1.000000
vn 0.000000 0.000000 1.000000
vn 0.000000 0.000000 1.000000
vn 0.000000 1.000000 0.000000
vn 0.000000 1.000000 0.000000
vn 0.000000 1.000000 0.000000
vn 0.000000 1.000000 0.000000
vn 0.000000 0.000000 -1.000000
vn 0.000000 0.000000 -1.000000
vn 0.000000 0.000000 -1.000000
vn 0.000000 0.000000 -1.000000
vn 0.000000 -1.000000 0.000000
vn 0.000000 -1.000000 0.000000
vn 0.000000 -1.000000 0.000000
vn 0.000000 -1.000000 0.000000
vn 1.000000 0.000000 0.000000
vn 1.000000 0.000000 0.000000
vn 1.000000 0.000000 0.000000
vn 1.000000 0.000000 0.000000
vn -1.000000 0.000000 0.000000
vn -1.000000 0.000000 0.000000
vn -1.000000 0.000000 0.000000
vn -1.000000 0.000000 0.000000
vn 0.000000 1.000000 0.000000
vn 0.000000 1.000000 0.000000
vn 0.000000 1.000000 0.000000
vn 0.000000 1.000000 0.000000
vn -1.000000 0.000000 0.000000
vn -1.000000 0.000000 0.000000
vn -1.000000 0.000000 0.000000
vn -1.000000 0.000000 0.000000
vn 0.000000 -1.000000 0.000000
vn 0.000000 -1.000000 0.000000
vn 0.000000 -1.000000 0.000000
vn 0.000000 -1.000000 0.000000
vn 1.000000 0.000000 0.000000
vn 1.000000 0.000000 0.000000
vn 1.000000 0.000000 0.000000
vn 1.000000 0.000000 0.000000
vn 0.000000 1.000000 0.000000
vn 0.000000 1.000000 0.000000
vn 0.000000 1.000000 0.000000
vn 0.000000 1.000000 0.000000
vn 0.000000 1.000000 0.000000
vn 0.000000 1.000000 0.000000
vn 0.000000 1.000000 0.000000
vn 0.000000 1.000000 0.000000
vn 0.000000 0.000000 -1.000000
vn 0.000000 0.000000 -1.000000
vn 0.000000 0.000000 -1.000000
vn 0.000000 0.000000 -1.000000
vn 0.000000 -1.000000 0.000000
vn 0.000000 -1.000000 0.000000
vn 0.000000 -1.000000 0.000000
vn 0.000000 -1.000000 0.000000
vn 0.000000 -1.000000 0.000000
vn 0.000000 -1.000000 0.000000
vn 0.000000 -1.000000 0.000000
vn 0.000000 -1.000000 0.000000
vn 0.000000 0.000000 1.000000
vn 0.000000 0.000000 1.000000
vn 0.000000 0.000000 1.000000
vn 0.000000 0.000000 1.000000
vn 0.000000 1.000000 0.000000
vn 0.000000 1.000000 0.000000
vn 0.000000 1.000000 0.000000
vn 0.000000 1.000000 0.000000
vn 0.000000 0.000000 1.000000
vn 0.000000 0.000000 1.000000
vn -1.000000 0.000000 0.000000
vn -1.000000 0.000000 0.000000
vn 0.000000 0.000000 -1.000000
vn 0.000000 0.000000 -1.000000
vn -1.000000 0.000000 0.000000
vn -1.000000 0.000000 0.000000
vn 1.000000 0.000000 0.000000
vn 1.000000 0.000000 0.000000
vn 1.000000 0.000000 0.000000
vn 1.000000 0.000000 0.000000
vn 0.000000 0.000000 1.000000
vn 0.000000 0.000000 1.000000
vn 1.000000 0.000000 0.000000
vn 1.000000 0.000000 0.000000
vn -1.000000 0.000000 0.000000
vn -1.000000 0.000000 0.000000
vn -1.000000 0.000000 0.000000
vn -1.000000 0.000000 0.000000
vn 1.000000 0.000000 0.000000
vn 1.000000 0.000000 0.000000
vn 0.000000 0.000000 -1.000000
vn 0.000000 0.000000 -1.000000
vn 0.000000 0.000000 -1.000000
vn 0.000000 0.000000 -1.000000
vn 0.000000 0.000000 -1.000000
vn 0.000000 0.000000 -1.000000
vn 0.000000 0.000000 1.000000
vn 0.000000 0.000000 1.000000
vn 0.000000 0.000000 1.000000
vn 0.000000 0.000000 1.000000
s 1
g group4 pCube1 group1 group3
usemtl initialShadingGroup
f 41/91/105 72/94/106 65/98/107 43/100/108
s 2
f 73/67/109 74/68/110 75/69/111 76/70/112
s 3
f 45/103/113 68/107/114 69/125/115 47/126/116
s 4
f 55/80/117 71/81/118 72/88/119 41/89/120
s 5
f 42/61/121 56/62/122 53/63/123 44/64/124
s 6
f 55/65/125 41/66/126 43/71/127 54/72/128
s 2
f 78/95/129 77/96/130 79/97/131 80/99/132
s 6
f 47/73/133 51/74/134 50/75/135 45/76/136
s 4
f 47/104/137 69/105/138 70/106/139 51/108/140
s 5
f 49/77/141 52/78/142 48/79/143 46/82/144
s 2
f 76/70/112 75/69/111 77/96/130 78/95/129
s 6
f 51/74/134 55/65/125 54/72/128 50/75/135
s 4
f 51/108/140 70/106/139 71/81/118 55/80/117
s 5
f 53/63/123 56/62/122 52/78/142 49/77/141
s 2
f 81/109/145 82/110/146 83/111/147 84/112/148
f 85/113/149 84/112/148 83/111/147 86/114/150
f 87/115/151 85/113/149 86/114/150 88/116/152
s 3
f 61/127/153 60/128/154 46/129/155 48/130/156
s 4
f 62/117/157 61/118/158 48/119/159 52/120/160
f 63/121/161 62/117/157 52/120/160 56/122/162
f 64/123/163 63/121/161 56/122/162 42/124/164
s 1
f 57/131/165 64/132/166 42/133/167 44/134/168
s 2
f 74/68/110 81/109/145 84/112/148 75/69/111
s off
f 67/92/169 66/93/170 58/101/171 59/102/172
s 2
f 79/97/131 77/96/130 85/113/149 87/115/151
s 3
f 69/125/115 68/107/114 60/128/154 61/127/153
s 4
f 70/106/139 69/105/138 61/118/158 62/117/157
f 71/161/118 70/162/139 62/163/157 63/164/161
f 72/88/119 71/81/118 63/121/161 64/123/163
s 1
f 65/98/107 72/94/106 64/132/166 57/131/165
f 43/100/108 65/98/107 74/135/173 73/136/174
s 6
f 54/72/128 43/71/127 73/83/175 76/84/176
s 3
f 68/107/114 45/103/113 80/137/177 79/138/178
s 6
f 45/76/136 50/75/135 78/85/179 80/86/180
s off
f 66/87/181 67/90/182 77/151/183 75/152/184
s 6
f 50/75/135 54/72/128 76/84/176 78/85/179
s 1
f 57/131/165 44/134/168 82/139/185 81/140/186
s 5
f 44/64/124 53/63/123 83/153/187 82/154/188
s off
f 59/155/189 58/156/190 84/157/191 85/158/192
s 5
f 53/63/123 49/77/141 86/159/193 83/153/187
f 49/77/141 46/82/144 88/160/194 86/159/193
s 3
f 46/129/155 60/128/154 87/141/195 88/142/196
s 1
f 65/98/107 57/131/165 81/140/186 74/135/173
s off
f 58/143/197 66/144/198 75/145/199 84/146/200
f 67/147/201 59/148/202 85/149/203 77/150/204
s 3
f 60/128/154 68/107/114 79/138/178 87/141/195
g default
v -1.514427 0.057893 -7.656967
v 1.514427 0.057893 -7.656967
v -1.514427 3.391591 -7.656967
v 1.514427 3.391591 -7.656967
v -1.514427 3.391591 -7.685043
v 1.514427 3.391591 -7.685043
v -1.514427 0.057893 -7.685043
v 1.514427 0.057893 -7.685043
vt 0.405116 0.471340
vt 0.569946 0.471340
vt 0.569946 0.636169
vt 0.405116 0.636169
vt 0.405116 0.636169
vt 0.569946 0.636169
vt 0.569946 0.471340
vt 0.405116 0.471340
vt 0.120834 0.031993
vt 0.878576 0.031993
vt 0.770925 0.116968
vt 0.781524 0.116968
vt 0.781524 0.920689
vt 0.770925 0.920689
vt 0.878576 0.038065
vt 0.120834 0.038065
vt 0.120834 0.038065
vt 0.878576 0.038065
vt 0.878576 0.031993
vt 0.120834 0.031993
vt 0.781524 0.116968
vt 0.770925 0.116968
vt 0.770925 0.920689
vt 0.781524 0.920689
vn 0.000000 0.000000 1.000000
vn 0.000000 0.000000 1.000000
vn 0.000000 0.000000 1.000000
vn 0.000000 0.000000 1.000000
vn 0.000000 1.000000 0.000000
vn 0.000000 1.000000 0.000000
vn 0.000000 1.000000 0.000000
vn 0.000000 1.000000 0.000000
vn 0.000000 0.000000 -1.000000
vn 0.000000 0.000000 -1.000000
vn 0.000000 0.000000 -1.000000
vn 0.000000 0.000000 -1.000000
vn 0.000000 -1.000000 0.000000
vn 0.000000 -1.000000 0.000000
vn 0.000000 -1.000000 0.000000
vn 0.000000 -1.000000 0.000000
vn 1.000000 0.000000 0.000000
vn 1.000000 0.000000 0.000000
vn 1.000000 0.000000 0.000000
vn 1.000000 0.000000 0.000000
vn -1.000000 0.000000 0.000000
vn -1.000000 0.000000 0.000000
vn -1.000000 0.000000 0.000000
vn -1.000000 0.000000 0.000000
s off
g group4 group1 group3 pCube2 group2
usemtl initialShadingGroup
f 89/165/205 90/166/206 92/167/207 91/168/208
f 91/173/209 92/174/210 94/179/211 93/180/212
f 93/169/213 94/170/214 96/171/215 95/172/216
f 95/181/217 96/182/218 90/183/219 89/184/220
f 90/175/221 96/176/222 94/177/223 92/178/224
f 95/185/225 89/186/226 91/187/227 93/188/228
